<svg width="1200" height="500" viewBox="0 0 1200 500" fill="none" xmlns="http://www.w3.org/2000/svg">
<rect width="1200" height="500" fill="white"/>
<path d="M321.778 201.131L154.648 201C109.078 201 71.1953 237.153 70.001 283.622C69.9637 284.858 70.99 285.888 72.2217 285.888L239.352 286C284.922 286.019 322.805 249.866 323.999 203.415C324.036 202.18 323.01 201.15 321.778 201.15V201.131Z" fill="#E62058"/>
<path d="M406.777 73.1326L154.718 73C109.11 73 71.1963 109.578 70.001 156.594C69.9636 157.844 70.9908 158.886 72.2235 158.886L324.282 159C369.89 159.019 407.804 122.441 408.999 75.4436C409.036 74.1934 408.009 73.1515 406.777 73.1515V73.1326Z" fill="#E62058"/>
<path d="M127.98 409.694C149.721 400.688 160.046 375.762 151.04 354.02C142.034 332.279 117.109 321.954 95.3669 330.96C73.6252 339.966 63.3006 364.891 72.3063 386.633C81.312 408.375 106.238 418.699 127.98 409.694Z" fill="#E62058"/>
<path d="M634 117H588V370H634V117Z" fill="#E62058"/>
<path d="M1145 283.916C1145 236.596 1111.49 197 1064.24 197C1013.45 197 981 238.358 981 285.678C981 338.941 1019.45 374 1070.57 374C1097.02 374 1124.17 363.145 1140.76 343.516L1114.66 317.587C1106.55 326.343 1091.03 337.216 1071.63 337.216C1047.29 337.216 1027.9 320.737 1025.43 296.908H1143.92C1144.62 293.046 1144.98 288.49 1144.98 283.935L1145 283.916ZM1027.56 263.593C1029.67 248.163 1045.2 233.802 1064.24 233.802C1083.27 233.802 1096.68 248.52 1098.1 263.593H1027.56Z" fill="#E62058"/>
<path d="M793.19 215.841L789.97 213.205C776.248 201.948 759.082 196 740.324 196C693.598 196 657 235.173 657 285.188C657 307.532 664.713 328.822 678.734 345.143C694.197 363.214 718.14 374 742.814 374C760.729 374 776.566 368.221 789.914 356.814L793.152 354.047V370.405H834V199.595H793.152V215.841H793.19ZM745.902 337.839C718.627 337.839 696.425 314.403 696.425 285.584C696.425 256.764 718.627 233.328 745.902 233.328C773.178 233.328 795.38 256.764 795.38 285.584C795.38 314.403 773.178 337.839 745.902 337.839Z" fill="#E62058"/>
<path d="M952.967 196.019C934.158 196.019 916.946 201.953 903.187 213.182L899.958 215.811V199.605H859V370H899.902V281.197C899.902 267.489 905.477 254.194 915.819 245.199C924.398 237.744 935.397 233.256 947.373 233.256C955.313 233.256 962.803 235.228 969.466 238.721L983 201.746C973.708 198.047 963.591 196 952.948 196L952.967 196.019Z" fill="#E62058"/>
<path d="M467.417 369.981H510.284V235.114H558.98V199.506H510.284V192.129C510.284 175.367 512.935 168.628 517.184 163.222L517.222 163.166C523.257 156.014 532.602 152.391 545.029 152.391C548.827 152.391 553.659 152.936 557.495 153.762L564 117.722C556.047 115.807 548.32 115 538.543 115C517.617 115 498.797 122.077 485.523 134.934C472.982 147.079 467.398 164.179 467.398 190.346V199.524H436V235.132H467.398V370L467.417 369.981Z" fill="#E62058"/>
</svg>
